<?xml version="1.0" encoding="UTF-8"?> <svg xmlns="http://www.w3.org/2000/svg" xmlns:xlink="http://www.w3.org/1999/xlink" preserveAspectRatio="none" viewBox="0 0 1920 1325"><defs><style>.a{fill:#fff;stroke:#707070;}.b{clip-path:url(#a);}.c{fill:#0090ff;opacity:0.102;}</style><clipPath id="a"><rect class="a" width="1920" height="1325"></rect></clipPath></defs><g class="b"><path class="c" d="M6424,19c6.919,2.369,282.027,28.472,263,166-13.129,94.888,15.129,1007.4-819,1002-633.309-4.1-530.29,390.932-1269,382l32-1352c574.458-614.845,1631-108,1631-108Z" transform="translate(-4664 -244)"></path><path class="c" d="M6734,140s-56.974,129.907-31,326c23.958,180.883-80.809,687.063-848,710-655.37,19.594-594.737,355.705-1271,296l16-1334c99.03-51.108,242-6,242-6Z" transform="translate(-4664 -244)"></path></g></svg> 