<?xml version="1.0" encoding="UTF-8"?> <svg xmlns="http://www.w3.org/2000/svg" xmlns:xlink="http://www.w3.org/1999/xlink" preserveAspectRatio="none" viewBox="0 0 1920 1729"><defs><style>.a{fill:#fff;}.b{clip-path:url(#a);}.c{fill:#e7f9ff;}.d{fill:#0090ff;opacity:0.102;}</style><clipPath id="a"><rect class="a" width="1920" height="1729" transform="translate(0 2174)"></rect></clipPath></defs><g class="b" transform="translate(0 -2174)"><path class="c" d="M2048,2333s-94.516,61.857-149,84c-498.717,202.678-642.886-.633-934,90s-315.845,219.728-538,278-276.829-185.225-553,17l26,858c.308-2.01,107.055,69.372,236,80,120.805,9.956,350.368-80,532-80,250.305,0,502.262,222,754,222,239.754,0,359.235-119,484-119,127.015,0,160,137,160,137Z" transform="translate(-50 -244)"></path><path class="d" d="M2154,4181s-94.511-61.859-149-84c-498.767-202.667-566.856,50.628-858-40s-315.821-219.732-538-278-352.8,135.213-629-67L6,3024c.309,2.01,107.044-69.373,236-80,120.818-9.956,350.35,80,532,80,250.331,0,502.237-222,754-222,239.779,0,359.222,119,484,119,127.027,0,160-137,160-137Z" transform="translate(-50 -244)"></path></g></svg> 