<?xml version="1.0" encoding="UTF-8"?> <svg xmlns="http://www.w3.org/2000/svg" xmlns:xlink="http://www.w3.org/1999/xlink" width="1920" height="916" viewBox="0 0 1920 916"><defs><style>.a,.d{fill:#fff;}.a{stroke:#707070;}.b{clip-path:url(#a);}.c{fill:#cfeeff;}.d{opacity:0.4;}</style><clipPath id="a"><rect class="a" width="1920" height="916" transform="translate(0 6986)"></rect></clipPath></defs><g class="b" transform="translate(0 -6986)"><path class="c" d="M-159,8438c400.6,79.544,546.431-97.615,921-94,333.359,3.218,622.273,107.3,844,95,236.668-13.131,432.436-101.484,433-99l3-1001c-255.229-149.352-1771.3-134.3-2052-31C-27.3,7488.768-157.253,8416.307-159,8438Z" transform="translate(-50 -244)"></path><path class="d" d="M2065,8433c-405.177,106.019-541.49-117.046-916-108-333.3,8.052-485.23,121.9-707,133-209.741,10.5-406.458-52.493-407-50L21,7370c253.793-153.055,1746.331-200.231,2028-101C2068.019,7449.521,2063.047,8411.331,2065,8433Z" transform="translate(-50 -244)"></path></g></svg> 